<?xml version="1.0" encoding="utf-8"?>
<svg xmlns="http://www.w3.org/2000/svg" xmlns:xlink="http://www.w3.org/1999/xlink" width="600" height="400" viewBox="0 0 2400 1600">
<defs>
  <clipPath id="clip250">
    <rect x="0" y="0" width="2400" height="1600"/>
  </clipPath>
</defs>
<path clip-path="url(#clip250)" d="M0 1600 L2400 1600 L2400 0 L0 0  Z" fill="#ffffff" fill-rule="evenodd" fill-opacity="1"/>
<defs>
  <clipPath id="clip251">
    <rect x="480" y="0" width="1681" height="1600"/>
  </clipPath>
</defs>
<path clip-path="url(#clip250)" d="M276.876 1410.9 L2352.76 1410.9 L2352.76 123.472 L276.876 123.472  Z" fill="#ffffff" fill-rule="evenodd" fill-opacity="1"/>
<defs>
  <clipPath id="clip252">
    <rect x="276" y="123" width="2077" height="1288"/>
  </clipPath>
</defs>
<polyline clip-path="url(#clip252)" style="stroke:#000000; stroke-linecap:round; stroke-linejoin:round; stroke-width:2; stroke-opacity:0.1; fill:none" points="335.627,1410.9 335.627,123.472 "/>
<polyline clip-path="url(#clip252)" style="stroke:#000000; stroke-linecap:round; stroke-linejoin:round; stroke-width:2; stroke-opacity:0.1; fill:none" points="1033.22,1410.9 1033.22,123.472 "/>
<polyline clip-path="url(#clip252)" style="stroke:#000000; stroke-linecap:round; stroke-linejoin:round; stroke-width:2; stroke-opacity:0.1; fill:none" points="1730.8,1410.9 1730.8,123.472 "/>
<polyline clip-path="url(#clip252)" style="stroke:#000000; stroke-linecap:round; stroke-linejoin:round; stroke-width:2; stroke-opacity:0.1; fill:none" points="276.876,1228.88 2352.76,1228.88 "/>
<polyline clip-path="url(#clip252)" style="stroke:#000000; stroke-linecap:round; stroke-linejoin:round; stroke-width:2; stroke-opacity:0.1; fill:none" points="276.876,995.288 2352.76,995.288 "/>
<polyline clip-path="url(#clip252)" style="stroke:#000000; stroke-linecap:round; stroke-linejoin:round; stroke-width:2; stroke-opacity:0.1; fill:none" points="276.876,761.699 2352.76,761.699 "/>
<polyline clip-path="url(#clip252)" style="stroke:#000000; stroke-linecap:round; stroke-linejoin:round; stroke-width:2; stroke-opacity:0.1; fill:none" points="276.876,528.111 2352.76,528.111 "/>
<polyline clip-path="url(#clip252)" style="stroke:#000000; stroke-linecap:round; stroke-linejoin:round; stroke-width:2; stroke-opacity:0.1; fill:none" points="276.876,294.522 2352.76,294.522 "/>
<polyline clip-path="url(#clip250)" style="stroke:#000000; stroke-linecap:round; stroke-linejoin:round; stroke-width:4; stroke-opacity:1; fill:none" points="276.876,1410.9 2352.76,1410.9 "/>
<polyline clip-path="url(#clip250)" style="stroke:#000000; stroke-linecap:round; stroke-linejoin:round; stroke-width:4; stroke-opacity:1; fill:none" points="335.627,1410.9 335.627,1392 "/>
<polyline clip-path="url(#clip250)" style="stroke:#000000; stroke-linecap:round; stroke-linejoin:round; stroke-width:4; stroke-opacity:1; fill:none" points="1033.22,1410.9 1033.22,1392 "/>
<polyline clip-path="url(#clip250)" style="stroke:#000000; stroke-linecap:round; stroke-linejoin:round; stroke-width:4; stroke-opacity:1; fill:none" points="1730.8,1410.9 1730.8,1392 "/>
<path clip-path="url(#clip250)" d="M321.92 1485.02 L338.239 1485.02 L338.239 1488.96 L316.295 1488.96 L316.295 1485.02 Q318.957 1482.27 323.54 1477.64 Q328.146 1472.98 329.327 1471.64 Q331.572 1469.12 332.452 1467.38 Q333.355 1465.62 333.355 1463.93 Q333.355 1461.18 331.41 1459.44 Q329.489 1457.71 326.387 1457.71 Q324.188 1457.71 321.734 1458.47 Q319.304 1459.23 316.526 1460.79 L316.526 1456.06 Q319.35 1454.93 321.804 1454.35 Q324.258 1453.77 326.295 1453.77 Q331.665 1453.77 334.859 1456.46 Q338.054 1459.14 338.054 1463.63 Q338.054 1465.76 337.244 1467.68 Q336.457 1469.58 334.35 1472.17 Q333.771 1472.85 330.67 1476.06 Q327.568 1479.26 321.92 1485.02 Z" fill="#000000" fill-rule="nonzero" fill-opacity="1" /><path clip-path="url(#clip250)" d="M338.784 1458.35 L344.991 1458.35 L344.991 1436.93 L338.239 1438.28 L338.239 1434.82 L344.953 1433.47 L348.752 1433.47 L348.752 1458.35 L354.959 1458.35 L354.959 1461.55 L338.784 1461.55 L338.784 1458.35 Z" fill="#000000" fill-rule="nonzero" fill-opacity="1" /><path clip-path="url(#clip250)" d="M1018.95 1485.02 L1035.27 1485.02 L1035.27 1488.96 L1013.33 1488.96 L1013.33 1485.02 Q1015.99 1482.27 1020.57 1477.64 Q1025.18 1472.98 1026.36 1471.64 Q1028.61 1469.12 1029.49 1467.38 Q1030.39 1465.62 1030.39 1463.93 Q1030.39 1461.18 1028.44 1459.44 Q1026.52 1457.71 1023.42 1457.71 Q1021.22 1457.71 1018.77 1458.47 Q1016.34 1459.23 1013.56 1460.79 L1013.56 1456.06 Q1016.38 1454.93 1018.84 1454.35 Q1021.29 1453.77 1023.33 1453.77 Q1028.7 1453.77 1031.89 1456.46 Q1035.09 1459.14 1035.09 1463.63 Q1035.09 1465.76 1034.28 1467.68 Q1033.49 1469.58 1031.38 1472.17 Q1030.8 1472.85 1027.7 1476.06 Q1024.6 1479.26 1018.95 1485.02 Z" fill="#000000" fill-rule="nonzero" fill-opacity="1" /><path clip-path="url(#clip250)" d="M1039.84 1458.35 L1053.1 1458.35 L1053.1 1461.55 L1035.27 1461.55 L1035.27 1458.35 Q1037.44 1456.11 1041.16 1452.35 Q1044.9 1448.57 1045.86 1447.48 Q1047.69 1445.43 1048.4 1444.02 Q1049.13 1442.59 1049.13 1441.22 Q1049.13 1438.98 1047.55 1437.57 Q1045.99 1436.16 1043.47 1436.16 Q1041.69 1436.16 1039.69 1436.78 Q1037.72 1437.4 1035.46 1438.66 L1035.46 1434.82 Q1037.75 1433.9 1039.75 1433.43 Q1041.74 1432.96 1043.4 1432.96 Q1047.76 1432.96 1050.36 1435.14 Q1052.95 1437.32 1052.95 1440.97 Q1052.95 1442.7 1052.29 1444.26 Q1051.65 1445.8 1049.94 1447.91 Q1049.47 1448.46 1046.95 1451.07 Q1044.43 1453.67 1039.84 1458.35 Z" fill="#000000" fill-rule="nonzero" fill-opacity="1" /><path clip-path="url(#clip250)" d="M1716.21 1485.02 L1732.53 1485.02 L1732.53 1488.96 L1710.59 1488.96 L1710.59 1485.02 Q1713.25 1482.27 1717.83 1477.64 Q1722.44 1472.98 1723.62 1471.64 Q1725.86 1469.12 1726.74 1467.38 Q1727.65 1465.62 1727.65 1463.93 Q1727.65 1461.18 1725.7 1459.44 Q1723.78 1457.71 1720.68 1457.71 Q1718.48 1457.71 1716.03 1458.47 Q1713.6 1459.23 1710.82 1460.79 L1710.82 1456.06 Q1713.64 1454.93 1716.1 1454.35 Q1718.55 1453.77 1720.59 1453.77 Q1725.96 1453.77 1729.15 1456.46 Q1732.35 1459.14 1732.35 1463.63 Q1732.35 1465.76 1731.54 1467.68 Q1730.75 1469.58 1728.64 1472.17 Q1728.06 1472.85 1724.96 1476.06 Q1721.86 1479.26 1716.21 1485.02 Z" fill="#000000" fill-rule="nonzero" fill-opacity="1" /><path clip-path="url(#clip250)" d="M1745.23 1446.41 Q1747.95 1446.99 1749.48 1448.83 Q1751.02 1450.68 1751.02 1453.38 Q1751.02 1457.54 1748.16 1459.82 Q1745.3 1462.09 1740.04 1462.09 Q1738.27 1462.09 1736.39 1461.73 Q1734.53 1461.4 1732.53 1460.7 L1732.53 1457.03 Q1734.11 1457.95 1735.99 1458.42 Q1737.87 1458.89 1739.92 1458.89 Q1743.5 1458.89 1745.36 1457.48 Q1747.24 1456.07 1747.24 1453.38 Q1747.24 1450.9 1745.49 1449.51 Q1743.76 1448.1 1740.66 1448.1 L1737.38 1448.1 L1737.38 1444.98 L1740.81 1444.98 Q1743.61 1444.98 1745.1 1443.87 Q1746.58 1442.74 1746.58 1440.63 Q1746.58 1438.47 1745.04 1437.32 Q1743.52 1436.16 1740.66 1436.16 Q1739.1 1436.16 1737.31 1436.49 Q1735.52 1436.83 1733.38 1437.55 L1733.38 1434.16 Q1735.54 1433.56 1737.42 1433.26 Q1739.32 1432.96 1740.99 1432.96 Q1745.32 1432.96 1747.84 1434.93 Q1750.36 1436.89 1750.36 1440.24 Q1750.36 1442.57 1749.03 1444.19 Q1747.69 1445.79 1745.23 1446.41 Z" fill="#000000" fill-rule="nonzero" fill-opacity="1" /><path clip-path="url(#clip250)" d="M1301.27 1531.95 L1301.27 1568.9 L1309.04 1568.9 Q1318.87 1568.9 1323.43 1564.45 Q1328.01 1559.99 1328.01 1550.38 Q1328.01 1540.83 1323.43 1536.4 Q1318.87 1531.95 1309.04 1531.95 L1301.27 1531.95 M1294.84 1526.67 L1308.05 1526.67 Q1321.87 1526.67 1328.33 1532.43 Q1334.79 1538.16 1334.79 1550.38 Q1334.79 1562.66 1328.3 1568.42 Q1321.8 1574.19 1308.05 1574.19 L1294.84 1574.19 L1294.84 1526.67 Z" fill="#000000" fill-rule="nonzero" fill-opacity="1" /><polyline clip-path="url(#clip250)" style="stroke:#000000; stroke-linecap:round; stroke-linejoin:round; stroke-width:4; stroke-opacity:1; fill:none" points="276.876,1410.9 276.876,123.472 "/>
<polyline clip-path="url(#clip250)" style="stroke:#000000; stroke-linecap:round; stroke-linejoin:round; stroke-width:4; stroke-opacity:1; fill:none" points="276.876,1228.88 295.773,1228.88 "/>
<polyline clip-path="url(#clip250)" style="stroke:#000000; stroke-linecap:round; stroke-linejoin:round; stroke-width:4; stroke-opacity:1; fill:none" points="276.876,995.288 295.773,995.288 "/>
<polyline clip-path="url(#clip250)" style="stroke:#000000; stroke-linecap:round; stroke-linejoin:round; stroke-width:4; stroke-opacity:1; fill:none" points="276.876,761.699 295.773,761.699 "/>
<polyline clip-path="url(#clip250)" style="stroke:#000000; stroke-linecap:round; stroke-linejoin:round; stroke-width:4; stroke-opacity:1; fill:none" points="276.876,528.111 295.773,528.111 "/>
<polyline clip-path="url(#clip250)" style="stroke:#000000; stroke-linecap:round; stroke-linejoin:round; stroke-width:4; stroke-opacity:1; fill:none" points="276.876,294.522 295.773,294.522 "/>
<path clip-path="url(#clip250)" d="M114.931 1248.67 L122.57 1248.67 L122.57 1222.3 L114.26 1223.97 L114.26 1219.71 L122.524 1218.04 L127.2 1218.04 L127.2 1248.67 L134.839 1248.67 L134.839 1252.6 L114.931 1252.6 L114.931 1248.67 Z" fill="#000000" fill-rule="nonzero" fill-opacity="1" /><path clip-path="url(#clip250)" d="M154.283 1221.12 Q150.672 1221.12 148.843 1224.69 Q147.038 1228.23 147.038 1235.36 Q147.038 1242.46 148.843 1246.03 Q150.672 1249.57 154.283 1249.57 Q157.917 1249.57 159.723 1246.03 Q161.552 1242.46 161.552 1235.36 Q161.552 1228.23 159.723 1224.69 Q157.917 1221.12 154.283 1221.12 M154.283 1217.42 Q160.093 1217.42 163.149 1222.03 Q166.227 1226.61 166.227 1235.36 Q166.227 1244.09 163.149 1248.69 Q160.093 1253.28 154.283 1253.28 Q148.473 1253.28 145.394 1248.69 Q142.339 1244.09 142.339 1235.36 Q142.339 1226.61 145.394 1222.03 Q148.473 1217.42 154.283 1217.42 Z" fill="#000000" fill-rule="nonzero" fill-opacity="1" /><path clip-path="url(#clip250)" d="M166.227 1211.52 L190.339 1211.52 L190.339 1214.72 L166.227 1214.72 L166.227 1211.52 Z" fill="#000000" fill-rule="nonzero" fill-opacity="1" /><path clip-path="url(#clip250)" d="M199.197 1222 L205.404 1222 L205.404 1200.57 L198.652 1201.93 L198.652 1198.47 L205.366 1197.11 L209.166 1197.11 L209.166 1222 L215.372 1222 L215.372 1225.19 L199.197 1225.19 L199.197 1222 Z" fill="#000000" fill-rule="nonzero" fill-opacity="1" /><path clip-path="url(#clip250)" d="M231.171 1199.61 Q228.237 1199.61 226.751 1202.51 Q225.284 1205.39 225.284 1211.18 Q225.284 1216.96 226.751 1219.85 Q228.237 1222.73 231.171 1222.73 Q234.124 1222.73 235.591 1219.85 Q237.076 1216.96 237.076 1211.18 Q237.076 1205.39 235.591 1202.51 Q234.124 1199.61 231.171 1199.61 M231.171 1196.61 Q235.891 1196.61 238.374 1200.35 Q240.876 1204.07 240.876 1211.18 Q240.876 1218.27 238.374 1222.01 Q235.891 1225.74 231.171 1225.74 Q226.45 1225.74 223.949 1222.01 Q221.466 1218.27 221.466 1211.18 Q221.466 1204.07 223.949 1200.35 Q226.45 1196.61 231.171 1196.61 Z" fill="#000000" fill-rule="nonzero" fill-opacity="1" /><path clip-path="url(#clip250)" d="M139.588 1015.08 L147.227 1015.08 L147.227 988.714 L138.917 990.381 L138.917 986.122 L147.181 984.455 L151.857 984.455 L151.857 1015.08 L159.496 1015.08 L159.496 1019.02 L139.588 1019.02 L139.588 1015.08 Z" fill="#000000" fill-rule="nonzero" fill-opacity="1" /><path clip-path="url(#clip250)" d="M178.94 987.534 Q175.329 987.534 173.5 991.099 Q171.695 994.64 171.695 1001.77 Q171.695 1008.88 173.5 1012.44 Q175.329 1015.98 178.94 1015.98 Q182.574 1015.98 184.38 1012.44 Q186.209 1008.88 186.209 1001.77 Q186.209 994.64 184.38 991.099 Q182.574 987.534 178.94 987.534 M178.94 983.83 Q184.75 983.83 187.806 988.437 Q190.884 993.02 190.884 1001.77 Q190.884 1010.5 187.806 1015.1 Q184.75 1019.69 178.94 1019.69 Q173.13 1019.69 170.051 1015.1 Q166.996 1010.5 166.996 1001.77 Q166.996 993.02 170.051 988.437 Q173.13 983.83 178.94 983.83 Z" fill="#000000" fill-rule="nonzero" fill-opacity="1" /><path clip-path="url(#clip250)" d="M190.884 977.932 L214.996 977.932 L214.996 981.129 L190.884 981.129 L190.884 977.932 Z" fill="#000000" fill-rule="nonzero" fill-opacity="1" /><path clip-path="url(#clip250)" d="M223.309 991.022 L223.309 987.561 Q224.738 988.238 226.205 988.596 Q227.672 988.953 229.083 988.953 Q232.845 988.953 234.819 986.433 Q236.813 983.894 237.095 978.74 Q236.004 980.358 234.33 981.223 Q232.657 982.088 230.625 982.088 Q226.412 982.088 223.949 979.549 Q221.504 976.991 221.504 972.571 Q221.504 968.246 224.061 965.631 Q226.619 963.017 230.87 963.017 Q235.741 963.017 238.299 966.76 Q240.876 970.484 240.876 977.593 Q240.876 984.232 237.716 988.201 Q234.575 992.15 229.252 992.15 Q227.823 992.15 226.356 991.868 Q224.889 991.586 223.309 991.022 M230.87 979.117 Q233.428 979.117 234.913 977.367 Q236.418 975.618 236.418 972.571 Q236.418 969.543 234.913 967.794 Q233.428 966.026 230.87 966.026 Q228.312 966.026 226.807 967.794 Q225.321 969.543 225.321 972.571 Q225.321 975.618 226.807 977.367 Q228.312 979.117 230.87 979.117 Z" fill="#000000" fill-rule="nonzero" fill-opacity="1" /><path clip-path="url(#clip250)" d="M139.513 781.492 L147.152 781.492 L147.152 755.126 L138.842 756.793 L138.842 752.533 L147.106 750.867 L151.782 750.867 L151.782 781.492 L159.421 781.492 L159.421 785.427 L139.513 785.427 L139.513 781.492 Z" fill="#000000" fill-rule="nonzero" fill-opacity="1" /><path clip-path="url(#clip250)" d="M178.865 753.945 Q175.254 753.945 173.425 757.51 Q171.62 761.052 171.62 768.181 Q171.62 775.288 173.425 778.853 Q175.254 782.394 178.865 782.394 Q182.499 782.394 184.305 778.853 Q186.133 775.288 186.133 768.181 Q186.133 761.052 184.305 757.51 Q182.499 753.945 178.865 753.945 M178.865 750.242 Q184.675 750.242 187.731 754.848 Q190.809 759.431 190.809 768.181 Q190.809 776.908 187.731 781.515 Q184.675 786.098 178.865 786.098 Q173.055 786.098 169.976 781.515 Q166.92 776.908 166.92 768.181 Q166.92 759.431 169.976 754.848 Q173.055 750.242 178.865 750.242 Z" fill="#000000" fill-rule="nonzero" fill-opacity="1" /><path clip-path="url(#clip250)" d="M190.809 744.343 L214.921 744.343 L214.921 747.54 L190.809 747.54 L190.809 744.343 Z" fill="#000000" fill-rule="nonzero" fill-opacity="1" /><path clip-path="url(#clip250)" d="M231.246 744.682 Q228.538 744.682 226.977 746.13 Q225.434 747.578 225.434 750.117 Q225.434 752.656 226.977 754.104 Q228.538 755.553 231.246 755.553 Q233.954 755.553 235.515 754.104 Q237.076 752.637 237.076 750.117 Q237.076 747.578 235.515 746.13 Q233.973 744.682 231.246 744.682 M227.447 743.064 Q225.002 742.462 223.629 740.788 Q222.275 739.115 222.275 736.707 Q222.275 733.341 224.663 731.385 Q227.071 729.429 231.246 729.429 Q235.44 729.429 237.829 731.385 Q240.217 733.341 240.217 736.707 Q240.217 739.115 238.844 740.788 Q237.49 742.462 235.064 743.064 Q237.81 743.704 239.333 745.566 Q240.876 747.428 240.876 750.117 Q240.876 754.198 238.374 756.38 Q235.891 758.562 231.246 758.562 Q226.6 758.562 224.099 756.38 Q221.616 754.198 221.616 750.117 Q221.616 747.428 223.159 745.566 Q224.701 743.704 227.447 743.064 M226.055 737.064 Q226.055 739.246 227.409 740.469 Q228.782 741.691 231.246 741.691 Q233.691 741.691 235.064 740.469 Q236.456 739.246 236.456 737.064 Q236.456 734.883 235.064 733.66 Q233.691 732.438 231.246 732.438 Q228.782 732.438 227.409 733.66 Q226.055 734.883 226.055 737.064 Z" fill="#000000" fill-rule="nonzero" fill-opacity="1" /><path clip-path="url(#clip250)" d="M140.171 547.903 L147.81 547.903 L147.81 521.537 L139.5 523.204 L139.5 518.945 L147.764 517.278 L152.44 517.278 L152.44 547.903 L160.079 547.903 L160.079 551.838 L140.171 551.838 L140.171 547.903 Z" fill="#000000" fill-rule="nonzero" fill-opacity="1" /><path clip-path="url(#clip250)" d="M179.523 520.357 Q175.912 520.357 174.083 523.922 Q172.278 527.463 172.278 534.593 Q172.278 541.699 174.083 545.264 Q175.912 548.806 179.523 548.806 Q183.157 548.806 184.963 545.264 Q186.792 541.699 186.792 534.593 Q186.792 527.463 184.963 523.922 Q183.157 520.357 179.523 520.357 M179.523 516.653 Q185.333 516.653 188.389 521.26 Q191.467 525.843 191.467 534.593 Q191.467 543.32 188.389 547.926 Q185.333 552.509 179.523 552.509 Q173.713 552.509 170.634 547.926 Q167.579 543.32 167.579 534.593 Q167.579 525.843 170.634 521.26 Q173.713 516.653 179.523 516.653 Z" fill="#000000" fill-rule="nonzero" fill-opacity="1" /><path clip-path="url(#clip250)" d="M191.467 510.755 L215.579 510.755 L215.579 513.952 L191.467 513.952 L191.467 510.755 Z" fill="#000000" fill-rule="nonzero" fill-opacity="1" /><path clip-path="url(#clip250)" d="M222.82 496.348 L240.876 496.348 L240.876 497.965 L230.682 524.428 L226.713 524.428 L236.305 499.545 L222.82 499.545 L222.82 496.348 Z" fill="#000000" fill-rule="nonzero" fill-opacity="1" /><path clip-path="url(#clip250)" d="M139.306 314.314 L146.945 314.314 L146.945 287.949 L138.635 289.616 L138.635 285.356 L146.899 283.69 L151.575 283.69 L151.575 314.314 L159.214 314.314 L159.214 318.25 L139.306 318.25 L139.306 314.314 Z" fill="#000000" fill-rule="nonzero" fill-opacity="1" /><path clip-path="url(#clip250)" d="M178.658 286.768 Q175.047 286.768 173.218 290.333 Q171.413 293.875 171.413 301.004 Q171.413 308.111 173.218 311.676 Q175.047 315.217 178.658 315.217 Q182.292 315.217 184.098 311.676 Q185.926 308.111 185.926 301.004 Q185.926 293.875 184.098 290.333 Q182.292 286.768 178.658 286.768 M178.658 283.065 Q184.468 283.065 187.524 287.671 Q190.602 292.254 190.602 301.004 Q190.602 309.731 187.524 314.338 Q184.468 318.921 178.658 318.921 Q172.848 318.921 169.769 314.338 Q166.714 309.731 166.714 301.004 Q166.714 292.254 169.769 287.671 Q172.848 283.065 178.658 283.065 Z" fill="#000000" fill-rule="nonzero" fill-opacity="1" /><path clip-path="url(#clip250)" d="M190.602 277.166 L214.714 277.166 L214.714 280.363 L190.602 280.363 L190.602 277.166 Z" fill="#000000" fill-rule="nonzero" fill-opacity="1" /><path clip-path="url(#clip250)" d="M231.509 275.285 Q228.951 275.285 227.447 277.034 Q225.961 278.783 225.961 281.83 Q225.961 284.858 227.447 286.626 Q228.951 288.375 231.509 288.375 Q234.067 288.375 235.553 286.626 Q237.058 284.858 237.058 281.83 Q237.058 278.783 235.553 277.034 Q234.067 275.285 231.509 275.285 M239.051 263.38 L239.051 266.841 Q237.622 266.163 236.155 265.806 Q234.707 265.449 233.277 265.449 Q229.516 265.449 227.522 267.988 Q225.547 270.527 225.265 275.661 Q226.375 274.025 228.049 273.16 Q229.723 272.276 231.735 272.276 Q235.967 272.276 238.412 274.853 Q240.876 277.41 240.876 281.83 Q240.876 286.156 238.318 288.77 Q235.76 291.385 231.509 291.385 Q226.638 291.385 224.061 287.661 Q221.485 283.918 221.485 276.827 Q221.485 270.169 224.644 266.22 Q227.804 262.251 233.127 262.251 Q234.556 262.251 236.004 262.534 Q237.471 262.816 239.051 263.38 Z" fill="#000000" fill-rule="nonzero" fill-opacity="1" /><path clip-path="url(#clip250)" d="M16.4842 1078.12 L16.4842 1037.92 L21.895 1037.92 L21.895 1054.79 L64.0042 1054.79 L64.0042 1061.25 L21.895 1061.25 L21.895 1078.12 L16.4842 1078.12 Z" fill="#000000" fill-rule="nonzero" fill-opacity="1" /><path clip-path="url(#clip250)" d="M28.3562 1033.97 L28.3562 1028.11 L64.0042 1028.11 L64.0042 1033.97 L28.3562 1033.97 M14.479 1033.97 L14.479 1028.11 L21.895 1028.11 L21.895 1033.97 L14.479 1033.97 Z" fill="#000000" fill-rule="nonzero" fill-opacity="1" /><path clip-path="url(#clip250)" d="M35.1993 988.106 Q31.2526 985.91 29.3747 982.855 Q27.4968 979.799 27.4968 975.661 Q27.4968 970.091 31.4117 967.068 Q35.2948 964.044 42.4881 964.044 L64.0042 964.044 L64.0042 969.932 L42.679 969.932 Q37.5546 969.932 35.072 971.746 Q32.5894 973.561 32.5894 977.285 Q32.5894 981.836 35.6131 984.478 Q38.6368 987.12 43.8567 987.12 L64.0042 987.12 L64.0042 993.008 L42.679 993.008 Q37.5228 993.008 35.072 994.822 Q32.5894 996.636 32.5894 1000.42 Q32.5894 1004.91 35.6449 1007.55 Q38.6686 1010.2 43.8567 1010.2 L64.0042 1010.2 L64.0042 1016.08 L28.3562 1016.08 L28.3562 1010.2 L33.8944 1010.2 Q30.616 1008.19 29.0564 1005.39 Q27.4968 1002.59 27.4968 998.737 Q27.4968 994.854 29.4702 992.148 Q31.4436 989.411 35.1993 988.106 Z" fill="#000000" fill-rule="nonzero" fill-opacity="1" /><path clip-path="url(#clip250)" d="M44.7161 921.871 L47.5806 921.871 L47.5806 948.798 Q53.6281 948.416 56.8109 945.17 Q59.9619 941.891 59.9619 936.067 Q59.9619 932.693 59.1344 929.542 Q58.3069 926.359 56.6518 923.24 L62.1899 923.24 Q63.5267 926.391 64.227 929.701 Q64.9272 933.011 64.9272 936.417 Q64.9272 944.947 59.9619 949.944 Q54.9967 954.909 46.5303 954.909 Q37.7774 954.909 32.6531 950.198 Q27.4968 945.456 27.4968 937.435 Q27.4968 930.242 32.1438 926.072 Q36.7589 921.871 44.7161 921.871 M42.9973 927.728 Q38.1912 927.791 35.3266 930.433 Q32.4621 933.043 32.4621 937.372 Q32.4621 942.273 35.2312 945.233 Q38.0002 948.161 43.0292 948.607 L42.9973 927.728 Z" fill="#000000" fill-rule="nonzero" fill-opacity="1" /><path clip-path="url(#clip250)" d="M58.657 885.873 L77.5631 885.873 L77.5631 891.761 L28.3562 891.761 L28.3562 885.873 L33.7671 885.873 Q30.5842 884.027 29.0564 881.226 Q27.4968 878.393 27.4968 874.478 Q27.4968 867.985 32.6531 863.943 Q37.8093 859.869 46.212 859.869 Q54.6147 859.869 59.771 863.943 Q64.9272 867.985 64.9272 874.478 Q64.9272 878.393 63.3994 881.226 Q61.8398 884.027 58.657 885.873 M46.212 865.948 Q39.7508 865.948 36.0905 868.622 Q32.3984 871.264 32.3984 875.911 Q32.3984 880.558 36.0905 883.231 Q39.7508 885.873 46.212 885.873 Q52.6732 885.873 56.3653 883.231 Q60.0256 880.558 60.0256 875.911 Q60.0256 871.264 56.3653 868.622 Q52.6732 865.948 46.212 865.948 Z" fill="#000000" fill-rule="nonzero" fill-opacity="1" /><path clip-path="url(#clip250)" d="M44.7161 819.67 L47.5806 819.67 L47.5806 846.597 Q53.6281 846.215 56.8109 842.968 Q59.9619 839.69 59.9619 833.865 Q59.9619 830.491 59.1344 827.34 Q58.3069 824.157 56.6518 821.038 L62.1899 821.038 Q63.5267 824.189 64.227 827.499 Q64.9272 830.81 64.9272 834.215 Q64.9272 842.745 59.9619 847.742 Q54.9967 852.708 46.5303 852.708 Q37.7774 852.708 32.6531 847.997 Q27.4968 843.255 27.4968 835.234 Q27.4968 828.041 32.1438 823.871 Q36.7589 819.67 44.7161 819.67 M42.9973 825.526 Q38.1912 825.59 35.3266 828.232 Q32.4621 830.841 32.4621 835.17 Q32.4621 840.072 35.2312 843.032 Q38.0002 845.96 43.0292 846.406 L42.9973 825.526 Z" fill="#000000" fill-rule="nonzero" fill-opacity="1" /><path clip-path="url(#clip250)" d="M33.8307 789.401 Q33.2578 790.387 33.0032 791.565 Q32.7167 792.711 32.7167 794.111 Q32.7167 799.077 35.9632 801.75 Q39.1779 804.392 45.2253 804.392 L64.0042 804.392 L64.0042 810.28 L28.3562 810.28 L28.3562 804.392 L33.8944 804.392 Q30.6479 802.546 29.0883 799.586 Q27.4968 796.626 27.4968 792.393 Q27.4968 791.788 27.5923 791.056 Q27.656 790.324 27.8151 789.433 L33.8307 789.401 Z" fill="#000000" fill-rule="nonzero" fill-opacity="1" /><path clip-path="url(#clip250)" d="M35.1993 734.783 Q31.2526 732.587 29.3747 729.531 Q27.4968 726.476 27.4968 722.338 Q27.4968 716.768 31.4117 713.744 Q35.2948 710.721 42.4881 710.721 L64.0042 710.721 L64.0042 716.609 L42.679 716.609 Q37.5546 716.609 35.072 718.423 Q32.5894 720.237 32.5894 723.961 Q32.5894 728.513 35.6131 731.154 Q38.6368 733.796 43.8567 733.796 L64.0042 733.796 L64.0042 739.685 L42.679 739.685 Q37.5228 739.685 35.072 741.499 Q32.5894 743.313 32.5894 747.101 Q32.5894 751.588 35.6449 754.23 Q38.6686 756.872 43.8567 756.872 L64.0042 756.872 L64.0042 762.76 L28.3562 762.76 L28.3562 756.872 L33.8944 756.872 Q30.616 754.867 29.0564 752.066 Q27.4968 749.265 27.4968 745.414 Q27.4968 741.531 29.4702 738.825 Q31.4436 736.088 35.1993 734.783 Z" fill="#000000" fill-rule="nonzero" fill-opacity="1" /><path clip-path="url(#clip250)" d="M46.0847 682.839 Q46.0847 689.937 47.7079 692.674 Q49.3312 695.411 53.2461 695.411 Q56.3653 695.411 58.2114 693.374 Q60.0256 691.305 60.0256 687.772 Q60.0256 682.902 56.5881 679.974 Q53.1188 677.014 47.3897 677.014 L46.0847 677.014 L46.0847 682.839 M43.6657 671.158 L64.0042 671.158 L64.0042 677.014 L58.5933 677.014 Q61.8398 679.019 63.3994 682.011 Q64.9272 685.003 64.9272 689.332 Q64.9272 694.806 61.8716 698.053 Q58.7843 701.267 53.6281 701.267 Q47.6125 701.267 44.5569 697.257 Q41.5014 693.215 41.5014 685.226 L41.5014 677.014 L40.9285 677.014 Q36.8862 677.014 34.6901 679.688 Q32.4621 682.33 32.4621 687.136 Q32.4621 690.191 33.1941 693.088 Q33.9262 695.984 35.3903 698.658 L29.9795 698.658 Q28.7381 695.443 28.1334 692.419 Q27.4968 689.395 27.4968 686.531 Q27.4968 678.797 31.5072 674.977 Q35.5176 671.158 43.6657 671.158 Z" fill="#000000" fill-rule="nonzero" fill-opacity="1" /><path clip-path="url(#clip250)" d="M18.2347 653.302 L28.3562 653.302 L28.3562 641.239 L32.9077 641.239 L32.9077 653.302 L52.2594 653.302 Q56.6199 653.302 57.8613 652.124 Q59.1026 650.915 59.1026 647.254 L59.1026 641.239 L64.0042 641.239 L64.0042 647.254 Q64.0042 654.034 61.4897 656.612 Q58.9434 659.19 52.2594 659.19 L32.9077 659.19 L32.9077 663.487 L28.3562 663.487 L28.3562 659.19 L18.2347 659.19 L18.2347 653.302 Z" fill="#000000" fill-rule="nonzero" fill-opacity="1" /><path clip-path="url(#clip250)" d="M33.8307 612.88 Q33.2578 613.866 33.0032 615.044 Q32.7167 616.19 32.7167 617.59 Q32.7167 622.556 35.9632 625.229 Q39.1779 627.871 45.2253 627.871 L64.0042 627.871 L64.0042 633.759 L28.3562 633.759 L28.3562 627.871 L33.8944 627.871 Q30.6479 626.025 29.0883 623.065 Q27.4968 620.105 27.4968 615.872 Q27.4968 615.267 27.5923 614.535 Q27.656 613.803 27.8151 612.911 L33.8307 612.88 Z" fill="#000000" fill-rule="nonzero" fill-opacity="1" /><path clip-path="url(#clip250)" d="M28.3562 606.737 L28.3562 600.88 L64.0042 600.88 L64.0042 606.737 L28.3562 606.737 M14.479 606.737 L14.479 600.88 L21.895 600.88 L21.895 606.737 L14.479 606.737 Z" fill="#000000" fill-rule="nonzero" fill-opacity="1" /><path clip-path="url(#clip250)" d="M28.3562 558.994 L45.7028 571.885 L64.0042 558.326 L64.0042 565.232 L49.9996 575.608 L64.0042 585.985 L64.0042 592.891 L45.3526 579.046 L28.3562 591.714 L28.3562 584.807 L41.0558 575.354 L28.3562 565.901 L28.3562 558.994 Z" fill="#000000" fill-rule="nonzero" fill-opacity="1" /><path clip-path="url(#clip250)" d="M14.5426 515.262 Q21.8632 519.527 29.0246 521.595 Q36.186 523.664 43.5384 523.664 Q50.8908 523.664 58.1159 521.595 Q65.3091 519.495 72.5979 515.262 L72.5979 520.354 Q65.1182 525.128 57.8931 527.516 Q50.668 529.871 43.5384 529.871 Q36.4406 529.871 29.2474 527.516 Q22.0542 525.16 14.5426 520.354 L14.5426 515.262 Z" fill="#000000" fill-rule="nonzero" fill-opacity="1" /><path clip-path="url(#clip250)" d="M29.4065 481.173 L34.9447 481.173 Q33.6716 483.656 33.035 486.329 Q32.3984 489.003 32.3984 491.868 Q32.3984 496.228 33.7352 498.424 Q35.072 500.589 37.7456 500.589 Q39.7826 500.589 40.9603 499.029 Q42.1061 497.469 43.1565 492.759 L43.6021 490.754 Q44.9389 484.515 47.3897 481.905 Q49.8086 479.263 54.1691 479.263 Q59.1344 479.263 62.0308 483.21 Q64.9272 487.125 64.9272 494 Q64.9272 496.865 64.3543 499.984 Q63.8132 503.071 62.6992 506.509 L56.6518 506.509 Q58.3387 503.262 59.198 500.111 Q60.0256 496.96 60.0256 493.873 Q60.0256 489.735 58.6251 487.507 Q57.1929 485.279 54.6147 485.279 Q52.2276 485.279 50.9545 486.902 Q49.6813 488.494 48.5037 493.936 L48.0262 495.973 Q46.8804 501.416 44.5251 503.835 Q42.138 506.254 38.0002 506.254 Q32.9713 506.254 30.2341 502.689 Q27.4968 499.124 27.4968 492.568 Q27.4968 489.321 27.9743 486.457 Q28.4517 483.592 29.4065 481.173 Z" fill="#000000" fill-rule="nonzero" fill-opacity="1" /><path clip-path="url(#clip250)" d="M14.5426 470.861 L14.5426 465.768 Q22.0542 460.994 29.2474 458.639 Q36.4406 456.251 43.5384 456.251 Q50.668 456.251 57.8931 458.639 Q65.1182 460.994 72.5979 465.768 L72.5979 470.861 Q65.3091 466.628 58.1159 464.559 Q50.8908 462.458 43.5384 462.458 Q36.186 462.458 29.0246 464.559 Q21.8632 466.628 14.5426 470.861 Z" fill="#000000" fill-rule="nonzero" fill-opacity="1" /><path clip-path="url(#clip250)" d="M1166.88 12.096 L1175.06 12.096 L1175.06 37.6572 L1202.2 12.096 L1212.73 12.096 L1182.72 40.2903 L1214.88 72.576 L1204.1 72.576 L1175.06 43.45 L1175.06 72.576 L1166.88 72.576 L1166.88 12.096 Z" fill="#000000" fill-rule="nonzero" fill-opacity="1" /><path clip-path="url(#clip250)" d="M1240.12 49.7694 Q1231.08 49.7694 1227.6 51.8354 Q1224.12 53.9013 1224.12 58.8839 Q1224.12 62.8538 1226.71 65.2034 Q1229.34 67.5124 1233.84 67.5124 Q1240.04 67.5124 1243.76 63.1374 Q1247.53 58.7219 1247.53 51.4303 L1247.53 49.7694 L1240.12 49.7694 M1254.98 46.6907 L1254.98 72.576 L1247.53 72.576 L1247.53 65.6895 Q1244.98 69.8214 1241.17 71.8063 Q1237.36 73.7508 1231.85 73.7508 Q1224.89 73.7508 1220.75 69.8619 Q1216.66 65.9325 1216.66 59.3701 Q1216.66 51.7138 1221.77 47.825 Q1226.91 43.9361 1237.08 43.9361 L1247.53 43.9361 L1247.53 43.2069 Q1247.53 38.0623 1244.13 35.2672 Q1240.77 32.4315 1234.65 32.4315 Q1230.76 32.4315 1227.07 33.3632 Q1223.39 34.295 1219.98 36.1584 L1219.98 29.2718 Q1224.08 27.692 1227.92 26.9223 Q1231.77 26.1121 1235.42 26.1121 Q1245.26 26.1121 1250.12 31.2163 Q1254.98 36.3204 1254.98 46.6907 Z" fill="#000000" fill-rule="nonzero" fill-opacity="1" /><path clip-path="url(#clip250)" d="M1270.34 9.54393 L1277.79 9.54393 L1277.79 72.576 L1270.34 72.576 L1270.34 9.54393 Z" fill="#000000" fill-rule="nonzero" fill-opacity="1" /><path clip-path="url(#clip250)" d="M1328.71 35.9153 Q1331.51 30.8922 1335.39 28.5022 Q1339.28 26.1121 1344.55 26.1121 Q1351.64 26.1121 1355.49 31.0947 Q1359.34 36.0368 1359.34 45.1919 L1359.34 72.576 L1351.84 72.576 L1351.84 45.4349 Q1351.84 38.913 1349.53 35.7533 Q1347.22 32.5936 1342.48 32.5936 Q1336.69 32.5936 1333.33 36.4419 Q1329.97 40.2903 1329.97 46.9338 L1329.97 72.576 L1322.47 72.576 L1322.47 45.4349 Q1322.47 38.8725 1320.16 35.7533 Q1317.85 32.5936 1313.03 32.5936 Q1307.32 32.5936 1303.96 36.4824 Q1300.6 40.3308 1300.6 46.9338 L1300.6 72.576 L1293.1 72.576 L1293.1 27.2059 L1300.6 27.2059 L1300.6 34.2544 Q1303.15 30.082 1306.71 28.0971 Q1310.28 26.1121 1315.18 26.1121 Q1320.12 26.1121 1323.57 28.6237 Q1327.05 31.1352 1328.71 35.9153 Z" fill="#000000" fill-rule="nonzero" fill-opacity="1" /><path clip-path="url(#clip250)" d="M1394.82 49.7694 Q1385.79 49.7694 1382.3 51.8354 Q1378.82 53.9013 1378.82 58.8839 Q1378.82 62.8538 1381.41 65.2034 Q1384.05 67.5124 1388.54 67.5124 Q1394.74 67.5124 1398.47 63.1374 Q1402.23 58.7219 1402.23 51.4303 L1402.23 49.7694 L1394.82 49.7694 M1409.69 46.6907 L1409.69 72.576 L1402.23 72.576 L1402.23 65.6895 Q1399.68 69.8214 1395.87 71.8063 Q1392.07 73.7508 1386.56 73.7508 Q1379.59 73.7508 1375.46 69.8619 Q1371.37 65.9325 1371.37 59.3701 Q1371.37 51.7138 1376.47 47.825 Q1381.62 43.9361 1391.78 43.9361 L1402.23 43.9361 L1402.23 43.2069 Q1402.23 38.0623 1398.83 35.2672 Q1395.47 32.4315 1389.35 32.4315 Q1385.46 32.4315 1381.78 33.3632 Q1378.09 34.295 1374.69 36.1584 L1374.69 29.2718 Q1378.78 27.692 1382.63 26.9223 Q1386.48 26.1121 1390.12 26.1121 Q1399.97 26.1121 1404.83 31.2163 Q1409.69 36.3204 1409.69 46.6907 Z" fill="#000000" fill-rule="nonzero" fill-opacity="1" /><path clip-path="url(#clip250)" d="M1462.75 45.1919 L1462.75 72.576 L1455.3 72.576 L1455.3 45.4349 Q1455.3 38.994 1452.79 35.7938 Q1450.28 32.5936 1445.25 32.5936 Q1439.22 32.5936 1435.74 36.4419 Q1432.25 40.2903 1432.25 46.9338 L1432.25 72.576 L1424.76 72.576 L1424.76 27.2059 L1432.25 27.2059 L1432.25 34.2544 Q1434.93 30.163 1438.53 28.1376 Q1442.18 26.1121 1446.92 26.1121 Q1454.73 26.1121 1458.74 30.9732 Q1462.75 35.7938 1462.75 45.1919 Z" fill="#000000" fill-rule="nonzero" fill-opacity="1" /><polyline clip-path="url(#clip252)" style="stroke:#009af9; stroke-linecap:round; stroke-linejoin:round; stroke-width:4; stroke-opacity:1; fill:none" points="335.627,944.446 743.69,912.012 1033.22,886.736 1257.79,851.435 1441.28,820.159 1596.42,791.135 1730.8,777.142 1849.34,747.041 1955.38,726.1 2051.3,710.784 2138.87,697.429 2219.42,680.196 2294,662.24 "/>
<polyline clip-path="url(#clip252)" style="stroke:#e26f46; stroke-linecap:round; stroke-linejoin:round; stroke-width:4; stroke-opacity:1; fill:none" points="335.627,1318.44 743.69,1211.99 1033.22,1115.15 1257.79,1050.09 1441.28,967.508 1596.42,919.04 1730.8,901.735 1849.34,848.798 1955.38,817.729 2051.3,768.075 2138.87,754.195 2219.42,738.2 2294,696.539 "/>
<polyline clip-path="url(#clip252)" style="stroke:#3da44d; stroke-linecap:round; stroke-linejoin:round; stroke-width:4; stroke-opacity:1; fill:none" points="335.627,989.605 743.69,914.108 1033.22,861.735 1257.79,816.015 1441.28,781.098 1596.42,752.075 1730.8,733.742 1849.34,689.522 1955.38,670.853 2051.3,654.331 2138.87,638.706 2219.42,623.344 2294,607.715 "/>
<polyline clip-path="url(#clip252)" style="stroke:#c271d2; stroke-linecap:round; stroke-linejoin:round; stroke-width:4; stroke-opacity:1; fill:none" points="335.627,751.948 743.69,377.052 1033.22,405.283 1257.79,369.625 1441.28,329.316 1596.42,298.985 1730.8,285.64 1849.34,258.801 1955.38,231.36 2051.3,216.864 2138.87,196.002 2219.42,175.1 2294,159.909 "/>
<polyline clip-path="url(#clip252)" style="stroke:#ac8d18; stroke-linecap:round; stroke-linejoin:round; stroke-width:4; stroke-opacity:1; fill:none" points="335.627,1374.46 743.69,1304.14 1033.22,1252.32 1257.79,1211.19 1441.28,1177.05 1596.42,1147.87 1730.8,1122.38 1849.34,1099.74 1955.38,1079.38 2051.3,1060.89 2138.87,1043.94 2219.42,1028.3 2294,1013.78 "/>
<path clip-path="url(#clip250)" d="M346.072 477.426 L1051.06 477.426 L1051.06 166.386 L346.072 166.386  Z" fill="#ffffff" fill-rule="evenodd" fill-opacity="1"/>
<polyline clip-path="url(#clip250)" style="stroke:#000000; stroke-linecap:round; stroke-linejoin:round; stroke-width:4; stroke-opacity:1; fill:none" points="346.072,477.426 1051.06,477.426 1051.06,166.386 346.072,166.386 346.072,477.426 "/>
<polyline clip-path="url(#clip250)" style="stroke:#009af9; stroke-linecap:round; stroke-linejoin:round; stroke-width:4; stroke-opacity:1; fill:none" points="369.137,218.226 507.529,218.226 "/>
<path clip-path="url(#clip250)" d="M530.594 200.946 L537.562 200.946 L546.381 224.465 L555.247 200.946 L562.214 200.946 L562.214 235.506 L557.654 235.506 L557.654 205.159 L548.742 228.863 L544.043 228.863 L535.131 205.159 L535.131 235.506 L530.594 235.506 L530.594 200.946 Z" fill="#000000" fill-rule="nonzero" fill-opacity="1" /><path clip-path="url(#clip250)" d="M583.048 205.553 L576.705 222.752 L589.413 222.752 L583.048 205.553 M580.409 200.946 L585.71 200.946 L598.881 235.506 L594.02 235.506 L590.872 226.641 L575.293 226.641 L572.145 235.506 L567.214 235.506 L580.409 200.946 Z" fill="#000000" fill-rule="nonzero" fill-opacity="1" /><path clip-path="url(#clip250)" d="M626.659 230.576 L626.659 221.293 L619.02 221.293 L619.02 217.451 L631.288 217.451 L631.288 232.289 Q628.58 234.21 625.316 235.205 Q622.052 236.178 618.348 236.178 Q610.247 236.178 605.663 231.455 Q601.103 226.71 601.103 218.261 Q601.103 209.789 605.663 205.067 Q610.247 200.321 618.348 200.321 Q621.728 200.321 624.76 201.155 Q627.816 201.988 630.385 203.608 L630.385 208.585 Q627.793 206.386 624.876 205.275 Q621.959 204.164 618.742 204.164 Q612.399 204.164 609.205 207.705 Q606.034 211.247 606.034 218.261 Q606.034 225.252 609.205 228.793 Q612.399 232.335 618.742 232.335 Q621.219 232.335 623.163 231.918 Q625.108 231.479 626.659 230.576 Z" fill="#000000" fill-rule="nonzero" fill-opacity="1" /><path clip-path="url(#clip250)" d="M639.83 200.946 L646.797 200.946 L655.617 224.465 L664.482 200.946 L671.45 200.946 L671.45 235.506 L666.89 235.506 L666.89 205.159 L657.978 228.863 L653.279 228.863 L644.367 205.159 L644.367 235.506 L639.83 235.506 L639.83 200.946 Z" fill="#000000" fill-rule="nonzero" fill-opacity="1" /><path clip-path="url(#clip250)" d="M692.283 205.553 L685.941 222.752 L698.649 222.752 L692.283 205.553 M689.644 200.946 L694.945 200.946 L708.116 235.506 L703.255 235.506 L700.107 226.641 L684.529 226.641 L681.38 235.506 L676.45 235.506 L689.644 200.946 Z" fill="#000000" fill-rule="nonzero" fill-opacity="1" /><path clip-path="url(#clip250)" d="M738.278 199.534 Q735.176 204.858 733.672 210.067 Q732.167 215.275 732.167 220.622 Q732.167 225.969 733.672 231.224 Q735.2 236.455 738.278 241.756 L734.575 241.756 Q731.102 236.316 729.366 231.062 Q727.653 225.807 727.653 220.622 Q727.653 215.46 729.366 210.229 Q731.079 204.997 734.575 199.534 L738.278 199.534 Z" fill="#000000" fill-rule="nonzero" fill-opacity="1" /><path clip-path="url(#clip250)" d="M768.093 219.858 L768.093 235.506 L763.834 235.506 L763.834 219.997 Q763.834 216.317 762.399 214.488 Q760.963 212.659 758.093 212.659 Q754.644 212.659 752.653 214.858 Q750.662 217.057 750.662 220.854 L750.662 235.506 L746.38 235.506 L746.38 209.58 L750.662 209.58 L750.662 213.608 Q752.19 211.27 754.25 210.113 Q756.334 208.955 759.042 208.955 Q763.51 208.955 765.801 211.733 Q768.093 214.488 768.093 219.858 Z" fill="#000000" fill-rule="nonzero" fill-opacity="1" /><path clip-path="url(#clip250)" d="M786.635 212.567 Q783.209 212.567 781.218 215.252 Q779.227 217.914 779.227 222.567 Q779.227 227.219 781.195 229.904 Q783.185 232.566 786.635 232.566 Q790.037 232.566 792.028 229.881 Q794.019 227.196 794.019 222.567 Q794.019 217.96 792.028 215.275 Q790.037 212.567 786.635 212.567 M786.635 208.955 Q792.19 208.955 795.361 212.567 Q798.533 216.178 798.533 222.567 Q798.533 228.932 795.361 232.566 Q792.19 236.178 786.635 236.178 Q781.056 236.178 777.885 232.566 Q774.736 228.932 774.736 222.567 Q774.736 216.178 777.885 212.567 Q781.056 208.955 786.635 208.955 Z" fill="#000000" fill-rule="nonzero" fill-opacity="1" /><path clip-path="url(#clip250)" d="M827.144 219.858 L827.144 235.506 L822.884 235.506 L822.884 219.997 Q822.884 216.317 821.449 214.488 Q820.014 212.659 817.144 212.659 Q813.695 212.659 811.704 214.858 Q809.713 217.057 809.713 220.854 L809.713 235.506 L805.431 235.506 L805.431 209.58 L809.713 209.58 L809.713 213.608 Q811.241 211.27 813.301 210.113 Q815.384 208.955 818.093 208.955 Q822.56 208.955 824.852 211.733 Q827.144 214.488 827.144 219.858 Z" fill="#000000" fill-rule="nonzero" fill-opacity="1" /><path clip-path="url(#clip250)" d="M833.486 220.622 L845.963 220.622 L845.963 224.418 L833.486 224.418 L833.486 220.622 Z" fill="#000000" fill-rule="nonzero" fill-opacity="1" /><path clip-path="url(#clip250)" d="M869.273 210.344 L869.273 214.372 Q867.467 213.446 865.523 212.983 Q863.579 212.52 861.495 212.52 Q858.324 212.52 856.727 213.493 Q855.153 214.465 855.153 216.409 Q855.153 217.891 856.287 218.747 Q857.421 219.58 860.847 220.344 L862.305 220.668 Q866.842 221.641 868.741 223.423 Q870.662 225.182 870.662 228.354 Q870.662 231.965 867.791 234.071 Q864.944 236.178 859.944 236.178 Q857.861 236.178 855.592 235.761 Q853.347 235.367 850.847 234.557 L850.847 230.159 Q853.208 231.386 855.5 232.011 Q857.792 232.613 860.037 232.613 Q863.046 232.613 864.667 231.594 Q866.287 230.553 866.287 228.678 Q866.287 226.942 865.106 226.016 Q863.949 225.09 859.991 224.233 L858.509 223.886 Q854.551 223.053 852.792 221.34 Q851.032 219.604 851.032 216.594 Q851.032 212.937 853.625 210.946 Q856.217 208.955 860.986 208.955 Q863.347 208.955 865.43 209.303 Q867.514 209.65 869.273 210.344 Z" fill="#000000" fill-rule="nonzero" fill-opacity="1" /><path clip-path="url(#clip250)" d="M881.657 202.219 L881.657 209.58 L890.43 209.58 L890.43 212.891 L881.657 212.891 L881.657 226.965 Q881.657 230.136 882.514 231.039 Q883.393 231.941 886.055 231.941 L890.43 231.941 L890.43 235.506 L886.055 235.506 Q881.125 235.506 879.25 233.678 Q877.375 231.826 877.375 226.965 L877.375 212.891 L874.25 212.891 L874.25 209.58 L877.375 209.58 L877.375 202.219 L881.657 202.219 Z" fill="#000000" fill-rule="nonzero" fill-opacity="1" /><path clip-path="url(#clip250)" d="M911.055 213.562 Q910.338 213.145 909.481 212.96 Q908.648 212.752 907.629 212.752 Q904.018 212.752 902.074 215.113 Q900.152 217.451 900.152 221.849 L900.152 235.506 L895.87 235.506 L895.87 209.58 L900.152 209.58 L900.152 213.608 Q901.495 211.247 903.648 210.113 Q905.801 208.955 908.879 208.955 Q909.319 208.955 909.851 209.025 Q910.384 209.071 911.032 209.187 L911.055 213.562 Z" fill="#000000" fill-rule="nonzero" fill-opacity="1" /><path clip-path="url(#clip250)" d="M915.523 209.58 L919.782 209.58 L919.782 235.506 L915.523 235.506 L915.523 209.58 M915.523 199.488 L919.782 199.488 L919.782 204.881 L915.523 204.881 L915.523 199.488 Z" fill="#000000" fill-rule="nonzero" fill-opacity="1" /><path clip-path="url(#clip250)" d="M945.754 213.516 L945.754 199.488 L950.013 199.488 L950.013 235.506 L945.754 235.506 L945.754 231.617 Q944.411 233.932 942.351 235.066 Q940.314 236.178 937.444 236.178 Q932.745 236.178 929.782 232.428 Q926.842 228.678 926.842 222.567 Q926.842 216.455 929.782 212.705 Q932.745 208.955 937.444 208.955 Q940.314 208.955 942.351 210.09 Q944.411 211.201 945.754 213.516 M931.24 222.567 Q931.24 227.266 933.162 229.951 Q935.106 232.613 938.486 232.613 Q941.865 232.613 943.81 229.951 Q945.754 227.266 945.754 222.567 Q945.754 217.867 943.81 215.205 Q941.865 212.52 938.486 212.52 Q935.106 212.52 933.162 215.205 Q931.24 217.867 931.24 222.567 Z" fill="#000000" fill-rule="nonzero" fill-opacity="1" /><path clip-path="url(#clip250)" d="M980.962 221.479 L980.962 223.562 L961.379 223.562 Q961.657 227.96 964.018 230.275 Q966.402 232.566 970.638 232.566 Q973.092 232.566 975.384 231.965 Q977.698 231.363 979.967 230.159 L979.967 234.187 Q977.675 235.159 975.268 235.668 Q972.86 236.178 970.384 236.178 Q964.18 236.178 960.546 232.566 Q956.935 228.955 956.935 222.798 Q956.935 216.432 960.36 212.705 Q963.809 208.955 969.643 208.955 Q974.874 208.955 977.907 212.335 Q980.962 215.692 980.962 221.479 M976.703 220.229 Q976.657 216.733 974.735 214.65 Q972.837 212.567 969.689 212.567 Q966.124 212.567 963.972 214.58 Q961.842 216.594 961.518 220.252 L976.703 220.229 Z" fill="#000000" fill-rule="nonzero" fill-opacity="1" /><path clip-path="url(#clip250)" d="M1005.01 213.516 L1005.01 199.488 L1009.27 199.488 L1009.27 235.506 L1005.01 235.506 L1005.01 231.617 Q1003.67 233.932 1001.61 235.066 Q999.573 236.178 996.703 236.178 Q992.004 236.178 989.041 232.428 Q986.101 228.678 986.101 222.567 Q986.101 216.455 989.041 212.705 Q992.004 208.955 996.703 208.955 Q999.573 208.955 1001.61 210.09 Q1003.67 211.201 1005.01 213.516 M990.499 222.567 Q990.499 227.266 992.42 229.951 Q994.365 232.613 997.744 232.613 Q1001.12 232.613 1003.07 229.951 Q1005.01 227.266 1005.01 222.567 Q1005.01 217.867 1003.07 215.205 Q1001.12 212.52 997.744 212.52 Q994.365 212.52 992.42 215.205 Q990.499 217.867 990.499 222.567 Z" fill="#000000" fill-rule="nonzero" fill-opacity="1" /><path clip-path="url(#clip250)" d="M1017.37 199.534 L1021.08 199.534 Q1024.55 204.997 1026.26 210.229 Q1028 215.46 1028 220.622 Q1028 225.807 1026.26 231.062 Q1024.55 236.316 1021.08 241.756 L1017.37 241.756 Q1020.45 236.455 1021.96 231.224 Q1023.49 225.969 1023.49 220.622 Q1023.49 215.275 1021.96 210.067 Q1020.45 204.858 1017.37 199.534 Z" fill="#000000" fill-rule="nonzero" fill-opacity="1" /><polyline clip-path="url(#clip250)" style="stroke:#e26f46; stroke-linecap:round; stroke-linejoin:round; stroke-width:4; stroke-opacity:1; fill:none" points="369.137,270.066 507.529,270.066 "/>
<path clip-path="url(#clip250)" d="M546.613 255.958 Q541.52 255.958 538.511 259.754 Q535.525 263.55 535.525 270.101 Q535.525 276.629 538.511 280.425 Q541.52 284.221 546.613 284.221 Q551.705 284.221 554.668 280.425 Q557.654 276.629 557.654 270.101 Q557.654 263.55 554.668 259.754 Q551.705 255.958 546.613 255.958 M546.613 252.161 Q553.881 252.161 558.233 257.046 Q562.585 261.907 562.585 270.101 Q562.585 278.272 558.233 283.156 Q553.881 288.018 546.613 288.018 Q539.321 288.018 534.946 283.156 Q530.594 278.295 530.594 270.101 Q530.594 261.907 534.946 257.046 Q539.321 252.161 546.613 252.161 Z" fill="#000000" fill-rule="nonzero" fill-opacity="1" /><path clip-path="url(#clip250)" d="M569.275 277.115 L569.275 261.42 L573.534 261.42 L573.534 276.953 Q573.534 280.633 574.969 282.485 Q576.404 284.314 579.275 284.314 Q582.724 284.314 584.714 282.115 Q586.728 279.916 586.728 276.119 L586.728 261.42 L590.987 261.42 L590.987 287.346 L586.728 287.346 L586.728 283.365 Q585.177 285.726 583.117 286.883 Q581.08 288.018 578.372 288.018 Q573.904 288.018 571.589 285.24 Q569.275 282.462 569.275 277.115 M579.992 260.795 L579.992 260.795 Z" fill="#000000" fill-rule="nonzero" fill-opacity="1" /><path clip-path="url(#clip250)" d="M614.784 265.402 Q614.066 264.985 613.21 264.8 Q612.376 264.592 611.358 264.592 Q607.747 264.592 605.802 266.953 Q603.881 269.291 603.881 273.689 L603.881 287.346 L599.598 287.346 L599.598 261.42 L603.881 261.42 L603.881 265.448 Q605.223 263.087 607.376 261.953 Q609.529 260.795 612.608 260.795 Q613.047 260.795 613.58 260.865 Q614.112 260.911 614.76 261.027 L614.784 265.402 Z" fill="#000000" fill-rule="nonzero" fill-opacity="1" /><path clip-path="url(#clip250)" d="M635.779 262.184 L635.779 266.212 Q633.973 265.286 632.029 264.823 Q630.084 264.36 628.001 264.36 Q624.83 264.36 623.233 265.333 Q621.659 266.305 621.659 268.249 Q621.659 269.731 622.793 270.587 Q623.927 271.42 627.353 272.184 L628.811 272.508 Q633.348 273.481 635.246 275.263 Q637.168 277.022 637.168 280.194 Q637.168 283.805 634.297 285.911 Q631.45 288.018 626.45 288.018 Q624.367 288.018 622.098 287.601 Q619.853 287.207 617.353 286.397 L617.353 281.999 Q619.714 283.226 622.006 283.851 Q624.297 284.453 626.543 284.453 Q629.552 284.453 631.172 283.434 Q632.793 282.393 632.793 280.518 Q632.793 278.782 631.612 277.856 Q630.455 276.93 626.496 276.073 L625.015 275.726 Q621.057 274.893 619.297 273.18 Q617.538 271.444 617.538 268.434 Q617.538 264.777 620.131 262.786 Q622.723 260.795 627.492 260.795 Q629.853 260.795 631.936 261.143 Q634.02 261.49 635.779 262.184 Z" fill="#000000" fill-rule="nonzero" fill-opacity="1" /><polyline clip-path="url(#clip250)" style="stroke:#3da44d; stroke-linecap:round; stroke-linejoin:round; stroke-width:4; stroke-opacity:1; fill:none" points="369.137,321.906 507.529,321.906 "/>
<path clip-path="url(#clip250)" d="M537.701 304.626 L542.377 304.626 L542.377 336.779 Q542.377 343.029 539.992 345.853 Q537.631 348.677 532.377 348.677 L530.594 348.677 L530.594 344.742 L532.053 344.742 Q535.154 344.742 536.428 343.006 Q537.701 341.27 537.701 336.779 L537.701 304.626 Z" fill="#000000" fill-rule="nonzero" fill-opacity="1" /><path clip-path="url(#clip250)" d="M562.4 309.233 L556.057 326.432 L568.765 326.432 L562.4 309.233 M559.761 304.626 L565.062 304.626 L578.233 339.186 L573.372 339.186 L570.224 330.321 L554.645 330.321 L551.497 339.186 L546.566 339.186 L559.761 304.626 Z" fill="#000000" fill-rule="nonzero" fill-opacity="1" /><path clip-path="url(#clip250)" d="M581.612 304.626 L586.636 304.626 L595.224 317.473 L603.858 304.626 L608.881 304.626 L597.77 321.223 L609.622 339.186 L604.598 339.186 L594.876 324.487 L585.085 339.186 L580.038 339.186 L592.376 320.737 L581.612 304.626 Z" fill="#000000" fill-rule="nonzero" fill-opacity="1" /><path clip-path="url(#clip250)" d="M640.871 303.214 Q637.77 308.538 636.265 313.747 Q634.76 318.955 634.76 324.302 Q634.76 329.649 636.265 334.904 Q637.793 340.135 640.871 345.436 L637.168 345.436 Q633.696 339.996 631.959 334.742 Q630.246 329.487 630.246 324.302 Q630.246 319.14 631.959 313.909 Q633.672 308.677 637.168 303.214 L640.871 303.214 Z" fill="#000000" fill-rule="nonzero" fill-opacity="1" /><path clip-path="url(#clip250)" d="M646.08 313.26 L650.594 313.26 L658.695 335.02 L666.797 313.26 L671.311 313.26 L661.589 339.186 L655.802 339.186 L646.08 313.26 Z" fill="#000000" fill-rule="nonzero" fill-opacity="1" /><path clip-path="url(#clip250)" d="M697.376 318.237 Q698.973 315.367 701.195 314.001 Q703.417 312.635 706.427 312.635 Q710.478 312.635 712.677 315.483 Q714.876 318.307 714.876 323.538 L714.876 339.186 L710.593 339.186 L710.593 323.677 Q710.593 319.95 709.274 318.145 Q707.954 316.339 705.246 316.339 Q701.936 316.339 700.015 318.538 Q698.093 320.737 698.093 324.534 L698.093 339.186 L693.811 339.186 L693.811 323.677 Q693.811 319.927 692.492 318.145 Q691.172 316.339 688.417 316.339 Q685.154 316.339 683.232 318.561 Q681.311 320.76 681.311 324.534 L681.311 339.186 L677.029 339.186 L677.029 313.26 L681.311 313.26 L681.311 317.288 Q682.769 314.904 684.806 313.77 Q686.843 312.635 689.644 312.635 Q692.468 312.635 694.436 314.071 Q696.427 315.506 697.376 318.237 Z" fill="#000000" fill-rule="nonzero" fill-opacity="1" /><path clip-path="url(#clip250)" d="M735.153 326.154 Q729.991 326.154 728.001 327.334 Q726.01 328.515 726.01 331.362 Q726.01 333.631 727.491 334.973 Q728.996 336.293 731.565 336.293 Q735.107 336.293 737.237 333.793 Q739.389 331.27 739.389 327.103 L739.389 326.154 L735.153 326.154 M743.649 324.395 L743.649 339.186 L739.389 339.186 L739.389 335.251 Q737.931 337.612 735.755 338.746 Q733.579 339.858 730.431 339.858 Q726.45 339.858 724.089 337.635 Q721.751 335.39 721.751 331.64 Q721.751 327.265 724.667 325.043 Q727.607 322.821 733.417 322.821 L739.389 322.821 L739.389 322.404 Q739.389 319.464 737.445 317.867 Q735.524 316.247 732.028 316.247 Q729.806 316.247 727.7 316.779 Q725.593 317.311 723.649 318.376 L723.649 314.441 Q725.987 313.538 728.186 313.098 Q730.385 312.635 732.468 312.635 Q738.093 312.635 740.871 315.552 Q743.649 318.469 743.649 324.395 Z" fill="#000000" fill-rule="nonzero" fill-opacity="1" /><path clip-path="url(#clip250)" d="M756.542 335.297 L756.542 349.047 L752.26 349.047 L752.26 313.26 L756.542 313.26 L756.542 317.196 Q757.885 314.881 759.922 313.77 Q761.982 312.635 764.829 312.635 Q769.551 312.635 772.491 316.385 Q775.454 320.135 775.454 326.247 Q775.454 332.358 772.491 336.108 Q769.551 339.858 764.829 339.858 Q761.982 339.858 759.922 338.746 Q757.885 337.612 756.542 335.297 M771.033 326.247 Q771.033 321.547 769.088 318.885 Q767.167 316.2 763.787 316.2 Q760.408 316.2 758.463 318.885 Q756.542 321.547 756.542 326.247 Q756.542 330.946 758.463 333.631 Q760.408 336.293 763.787 336.293 Q767.167 336.293 769.088 333.631 Q771.033 330.946 771.033 326.247 Z" fill="#000000" fill-rule="nonzero" fill-opacity="1" /><path clip-path="url(#clip250)" d="M781.843 303.214 L785.547 303.214 Q789.019 308.677 790.732 313.909 Q792.468 319.14 792.468 324.302 Q792.468 329.487 790.732 334.742 Q789.019 339.996 785.547 345.436 L781.843 345.436 Q784.922 340.135 786.426 334.904 Q787.954 329.649 787.954 324.302 Q787.954 318.955 786.426 313.747 Q784.922 308.538 781.843 303.214 Z" fill="#000000" fill-rule="nonzero" fill-opacity="1" /><polyline clip-path="url(#clip250)" style="stroke:#c271d2; stroke-linecap:round; stroke-linejoin:round; stroke-width:4; stroke-opacity:1; fill:none" points="369.137,373.746 507.529,373.746 "/>
<path clip-path="url(#clip250)" d="M558.464 359.128 L558.464 364.059 Q556.103 361.86 553.418 360.772 Q550.756 359.684 547.747 359.684 Q541.821 359.684 538.673 363.318 Q535.525 366.929 535.525 373.781 Q535.525 380.61 538.673 384.244 Q541.821 387.855 547.747 387.855 Q550.756 387.855 553.418 386.767 Q556.103 385.679 558.464 383.48 L558.464 388.364 Q556.011 390.031 553.256 390.864 Q550.525 391.698 547.469 391.698 Q539.622 391.698 535.108 386.906 Q530.594 382.091 530.594 373.781 Q530.594 365.448 535.108 360.656 Q539.622 355.841 547.469 355.841 Q550.571 355.841 553.302 356.675 Q556.057 357.485 558.464 359.128 Z" fill="#000000" fill-rule="nonzero" fill-opacity="1" /><path clip-path="url(#clip250)" d="M570.363 360.309 L570.363 373.295 L576.242 373.295 Q579.506 373.295 581.288 371.605 Q583.071 369.915 583.071 366.79 Q583.071 363.688 581.288 361.999 Q579.506 360.309 576.242 360.309 L570.363 360.309 M565.687 356.466 L576.242 356.466 Q582.052 356.466 585.015 359.105 Q588.001 361.721 588.001 366.79 Q588.001 371.906 585.015 374.522 Q582.052 377.137 576.242 377.137 L570.363 377.137 L570.363 391.026 L565.687 391.026 L565.687 356.466 Z" fill="#000000" fill-rule="nonzero" fill-opacity="1" /><path clip-path="url(#clip250)" d="M593.742 356.466 L598.441 356.466 L598.441 377.462 Q598.441 383.017 600.455 385.471 Q602.469 387.901 606.983 387.901 Q611.473 387.901 613.487 385.471 Q615.501 383.017 615.501 377.462 L615.501 356.466 L620.2 356.466 L620.2 378.04 Q620.2 384.799 616.844 388.249 Q613.51 391.698 606.983 391.698 Q600.432 391.698 597.075 388.249 Q593.742 384.799 593.742 378.04 L593.742 356.466 Z" fill="#000000" fill-rule="nonzero" fill-opacity="1" /><path clip-path="url(#clip250)" d="M654.089 355.054 Q650.987 360.378 649.482 365.587 Q647.978 370.795 647.978 376.142 Q647.978 381.489 649.482 386.744 Q651.01 391.975 654.089 397.276 L650.385 397.276 Q646.913 391.836 645.177 386.582 Q643.464 381.327 643.464 376.142 Q643.464 370.98 645.177 365.749 Q646.89 360.517 650.385 355.054 L654.089 355.054 Z" fill="#000000" fill-rule="nonzero" fill-opacity="1" /><path clip-path="url(#clip250)" d="M682.538 370.077 Q684.135 367.207 686.357 365.841 Q688.579 364.475 691.589 364.475 Q695.64 364.475 697.839 367.323 Q700.038 370.147 700.038 375.378 L700.038 391.026 L695.755 391.026 L695.755 375.517 Q695.755 371.79 694.436 369.985 Q693.117 368.179 690.408 368.179 Q687.098 368.179 685.177 370.378 Q683.255 372.577 683.255 376.374 L683.255 391.026 L678.973 391.026 L678.973 375.517 Q678.973 371.767 677.654 369.985 Q676.334 368.179 673.58 368.179 Q670.316 368.179 668.394 370.401 Q666.473 372.6 666.473 376.374 L666.473 391.026 L662.191 391.026 L662.191 365.1 L666.473 365.1 L666.473 369.128 Q667.931 366.744 669.968 365.61 Q672.006 364.475 674.806 364.475 Q677.63 364.475 679.598 365.911 Q681.589 367.346 682.538 370.077 Z" fill="#000000" fill-rule="nonzero" fill-opacity="1" /><path clip-path="url(#clip250)" d="M708.093 380.795 L708.093 365.1 L712.353 365.1 L712.353 380.633 Q712.353 384.313 713.788 386.165 Q715.223 387.994 718.093 387.994 Q721.542 387.994 723.533 385.795 Q725.547 383.596 725.547 379.799 L725.547 365.1 L729.806 365.1 L729.806 391.026 L725.547 391.026 L725.547 387.045 Q723.996 389.406 721.936 390.563 Q719.899 391.698 717.19 391.698 Q712.723 391.698 710.408 388.92 Q708.093 386.142 708.093 380.795 M718.811 364.475 L718.811 364.475 Z" fill="#000000" fill-rule="nonzero" fill-opacity="1" /><path clip-path="url(#clip250)" d="M738.579 355.008 L742.838 355.008 L742.838 391.026 L738.579 391.026 L738.579 355.008 Z" fill="#000000" fill-rule="nonzero" fill-opacity="1" /><path clip-path="url(#clip250)" d="M755.963 357.739 L755.963 365.1 L764.736 365.1 L764.736 368.411 L755.963 368.411 L755.963 382.485 Q755.963 385.656 756.82 386.559 Q757.699 387.461 760.362 387.461 L764.736 387.461 L764.736 391.026 L760.362 391.026 Q755.431 391.026 753.556 389.198 Q751.681 387.346 751.681 382.485 L751.681 368.411 L748.556 368.411 L748.556 365.1 L751.681 365.1 L751.681 357.739 L755.963 357.739 Z" fill="#000000" fill-rule="nonzero" fill-opacity="1" /><path clip-path="url(#clip250)" d="M770.338 365.1 L774.598 365.1 L774.598 391.026 L770.338 391.026 L770.338 365.1 M770.338 355.008 L774.598 355.008 L774.598 360.401 L770.338 360.401 L770.338 355.008 Z" fill="#000000" fill-rule="nonzero" fill-opacity="1" /><path clip-path="url(#clip250)" d="M787.722 357.739 L787.722 365.1 L796.496 365.1 L796.496 368.411 L787.722 368.411 L787.722 382.485 Q787.722 385.656 788.579 386.559 Q789.459 387.461 792.121 387.461 L796.496 387.461 L796.496 391.026 L792.121 391.026 Q787.19 391.026 785.315 389.198 Q783.44 387.346 783.44 382.485 L783.44 368.411 L780.315 368.411 L780.315 365.1 L783.44 365.1 L783.44 357.739 L787.722 357.739 Z" fill="#000000" fill-rule="nonzero" fill-opacity="1" /><path clip-path="url(#clip250)" d="M823.648 375.378 L823.648 391.026 L819.389 391.026 L819.389 375.517 Q819.389 371.837 817.954 370.008 Q816.519 368.179 813.648 368.179 Q810.199 368.179 808.208 370.378 Q806.218 372.577 806.218 376.374 L806.218 391.026 L801.935 391.026 L801.935 355.008 L806.218 355.008 L806.218 369.128 Q807.746 366.79 809.806 365.633 Q811.889 364.475 814.597 364.475 Q819.065 364.475 821.357 367.253 Q823.648 370.008 823.648 375.378 Z" fill="#000000" fill-rule="nonzero" fill-opacity="1" /><path clip-path="url(#clip250)" d="M847.167 369.082 Q846.449 368.665 845.593 368.48 Q844.759 368.272 843.741 368.272 Q840.13 368.272 838.185 370.633 Q836.264 372.971 836.264 377.369 L836.264 391.026 L831.981 391.026 L831.981 365.1 L836.264 365.1 L836.264 369.128 Q837.606 366.767 839.759 365.633 Q841.912 364.475 844.991 364.475 Q845.431 364.475 845.963 364.545 Q846.495 364.591 847.143 364.707 L847.167 369.082 Z" fill="#000000" fill-rule="nonzero" fill-opacity="1" /><path clip-path="url(#clip250)" d="M872.768 376.999 L872.768 379.082 L853.185 379.082 Q853.463 383.48 855.824 385.795 Q858.208 388.086 862.444 388.086 Q864.898 388.086 867.19 387.485 Q869.504 386.883 871.773 385.679 L871.773 389.707 Q869.481 390.679 867.074 391.188 Q864.667 391.698 862.19 391.698 Q855.986 391.698 852.352 388.086 Q848.741 384.475 848.741 378.318 Q848.741 371.952 852.167 368.225 Q855.616 364.475 861.449 364.475 Q866.68 364.475 869.713 367.855 Q872.768 371.212 872.768 376.999 M868.509 375.749 Q868.463 372.253 866.541 370.17 Q864.643 368.087 861.495 368.087 Q857.93 368.087 855.778 370.1 Q853.648 372.114 853.324 375.772 L868.509 375.749 Z" fill="#000000" fill-rule="nonzero" fill-opacity="1" /><path clip-path="url(#clip250)" d="M891.541 377.994 Q886.379 377.994 884.389 379.174 Q882.398 380.355 882.398 383.202 Q882.398 385.471 883.879 386.813 Q885.384 388.133 887.953 388.133 Q891.495 388.133 893.625 385.633 Q895.777 383.11 895.777 378.943 L895.777 377.994 L891.541 377.994 M900.037 376.235 L900.037 391.026 L895.777 391.026 L895.777 387.091 Q894.319 389.452 892.143 390.586 Q889.967 391.698 886.819 391.698 Q882.838 391.698 880.477 389.475 Q878.139 387.23 878.139 383.48 Q878.139 379.105 881.055 376.883 Q883.995 374.661 889.805 374.661 L895.777 374.661 L895.777 374.244 Q895.777 371.304 893.833 369.707 Q891.912 368.087 888.416 368.087 Q886.194 368.087 884.088 368.619 Q881.981 369.151 880.037 370.216 L880.037 366.281 Q882.375 365.378 884.574 364.938 Q886.773 364.475 888.856 364.475 Q894.481 364.475 897.259 367.392 Q900.037 370.309 900.037 376.235 Z" fill="#000000" fill-rule="nonzero" fill-opacity="1" /><path clip-path="url(#clip250)" d="M925.87 369.036 L925.87 355.008 L930.129 355.008 L930.129 391.026 L925.87 391.026 L925.87 387.137 Q924.527 389.452 922.467 390.586 Q920.43 391.698 917.56 391.698 Q912.861 391.698 909.898 387.948 Q906.958 384.198 906.958 378.087 Q906.958 371.975 909.898 368.225 Q912.861 364.475 917.56 364.475 Q920.43 364.475 922.467 365.61 Q924.527 366.721 925.87 369.036 M911.356 378.087 Q911.356 382.786 913.277 385.471 Q915.222 388.133 918.601 388.133 Q921.981 388.133 923.925 385.471 Q925.87 382.786 925.87 378.087 Q925.87 373.387 923.925 370.725 Q921.981 368.04 918.601 368.04 Q915.222 368.04 913.277 370.725 Q911.356 373.387 911.356 378.087 Z" fill="#000000" fill-rule="nonzero" fill-opacity="1" /><path clip-path="url(#clip250)" d="M961.078 376.999 L961.078 379.082 L941.495 379.082 Q941.773 383.48 944.134 385.795 Q946.518 388.086 950.754 388.086 Q953.208 388.086 955.499 387.485 Q957.814 386.883 960.083 385.679 L960.083 389.707 Q957.791 390.679 955.384 391.188 Q952.976 391.698 950.499 391.698 Q944.296 391.698 940.661 388.086 Q937.05 384.475 937.05 378.318 Q937.05 371.952 940.476 368.225 Q943.925 364.475 949.759 364.475 Q954.99 364.475 958.022 367.855 Q961.078 371.212 961.078 376.999 M956.819 375.749 Q956.772 372.253 954.851 370.17 Q952.953 368.087 949.805 368.087 Q946.24 368.087 944.087 370.1 Q941.958 372.114 941.634 375.772 L956.819 375.749 Z" fill="#000000" fill-rule="nonzero" fill-opacity="1" /><path clip-path="url(#clip250)" d="M985.129 369.036 L985.129 355.008 L989.388 355.008 L989.388 391.026 L985.129 391.026 L985.129 387.137 Q983.786 389.452 981.726 390.586 Q979.689 391.698 976.819 391.698 Q972.12 391.698 969.157 387.948 Q966.217 384.198 966.217 378.087 Q966.217 371.975 969.157 368.225 Q972.12 364.475 976.819 364.475 Q979.689 364.475 981.726 365.61 Q983.786 366.721 985.129 369.036 M970.615 378.087 Q970.615 382.786 972.536 385.471 Q974.481 388.133 977.86 388.133 Q981.24 388.133 983.184 385.471 Q985.129 382.786 985.129 378.087 Q985.129 373.387 983.184 370.725 Q981.24 368.04 977.86 368.04 Q974.481 368.04 972.536 370.725 Q970.615 373.387 970.615 378.087 Z" fill="#000000" fill-rule="nonzero" fill-opacity="1" /><path clip-path="url(#clip250)" d="M997.49 355.054 L1001.19 355.054 Q1004.67 360.517 1006.38 365.749 Q1008.11 370.98 1008.11 376.142 Q1008.11 381.327 1006.38 386.582 Q1004.67 391.836 1001.19 397.276 L997.49 397.276 Q1000.57 391.975 1002.07 386.744 Q1003.6 381.489 1003.6 376.142 Q1003.6 370.795 1002.07 365.587 Q1000.57 360.378 997.49 355.054 Z" fill="#000000" fill-rule="nonzero" fill-opacity="1" /><polyline clip-path="url(#clip250)" style="stroke:#ac8d18; stroke-linecap:round; stroke-linejoin:round; stroke-width:4; stroke-opacity:1; fill:none" points="369.137,425.586 507.529,425.586 "/>
<path clip-path="url(#clip250)" d="M552.839 409.441 L552.839 414.001 Q550.177 412.728 547.816 412.103 Q545.455 411.478 543.256 411.478 Q539.437 411.478 537.353 412.959 Q535.293 414.441 535.293 417.172 Q535.293 419.464 536.659 420.644 Q538.048 421.802 541.89 422.519 L544.715 423.098 Q549.946 424.093 552.423 426.616 Q554.923 429.116 554.923 433.329 Q554.923 438.352 551.543 440.945 Q548.187 443.538 541.682 443.538 Q539.228 443.538 536.451 442.982 Q533.696 442.426 530.733 441.339 L530.733 436.524 Q533.58 438.121 536.312 438.931 Q539.043 439.741 541.682 439.741 Q545.687 439.741 547.863 438.167 Q550.039 436.593 550.039 433.677 Q550.039 431.13 548.464 429.695 Q546.914 428.26 543.349 427.542 L540.502 426.987 Q535.27 425.945 532.932 423.723 Q530.594 421.501 530.594 417.542 Q530.594 412.959 533.812 410.32 Q537.053 407.681 542.724 407.681 Q545.154 407.681 547.677 408.121 Q550.201 408.561 552.839 409.441 Z" fill="#000000" fill-rule="nonzero" fill-opacity="1" /><path clip-path="url(#clip250)" d="M576.242 411.478 Q571.15 411.478 568.14 415.274 Q565.154 419.07 565.154 425.621 Q565.154 432.149 568.14 435.945 Q571.15 439.741 576.242 439.741 Q581.335 439.741 584.298 435.945 Q587.284 432.149 587.284 425.621 Q587.284 419.07 584.298 415.274 Q581.335 411.478 576.242 411.478 M576.242 407.681 Q583.511 407.681 587.862 412.566 Q592.214 417.427 592.214 425.621 Q592.214 433.792 587.862 438.676 Q583.511 443.538 576.242 443.538 Q568.951 443.538 564.576 438.676 Q560.224 433.815 560.224 425.621 Q560.224 417.427 564.576 412.566 Q568.951 407.681 576.242 407.681 Z" fill="#000000" fill-rule="nonzero" fill-opacity="1" /><path clip-path="url(#clip250)" d="M599.529 408.306 L604.205 408.306 L604.205 438.931 L621.034 438.931 L621.034 442.866 L599.529 442.866 L599.529 408.306 Z" fill="#000000" fill-rule="nonzero" fill-opacity="1" /></svg>
